<svg width="1710" height="978" viewBox="0 0 1710 978" fill="none" xmlns="http://www.w3.org/2000/svg">
<path d="M134 0L250.047 59.25V177.75L134 237L17.9526 177.75V59.25L134 0Z" fill="#838081" fill-opacity="0.35"/>
<path d="M1308 544L1424.05 603.25V721.75L1308 781L1191.95 721.75V603.25L1308 544Z" fill="#838081" fill-opacity="0.35"/>
<path d="M402 0L518.047 59.25V177.75L402 237L285.953 177.75V59.25L402 0Z" fill="#838081" fill-opacity="0.35"/>
<path d="M1576 544L1692.05 603.25V721.75L1576 781L1459.95 721.75V603.25L1576 544Z" fill="#838081" fill-opacity="0.35"/>
<path d="M265 197L381.047 256.25V374.75L265 434L148.953 374.75V256.25L265 197Z" fill="#838081" fill-opacity="0.35"/>
<path d="M1439 741L1555.05 800.25V918.75L1439 978L1322.95 918.75V800.25L1439 741Z" fill="#838081" fill-opacity="0.35"/>
<path d="M290 676L406.047 734.75V852.25L290 911L173.953 852.25V734.75L290 676Z" fill="#838081" fill-opacity="0.35"/>
<path d="M1097 245L1213.05 303.75V421.25L1097 480L980.953 421.25V303.75L1097 245Z" fill="#838081" fill-opacity="0.35"/>
<path d="M424.5 480L540.98 538.75V656.25L424.5 715L308.02 656.25V538.75L424.5 480Z" fill="#838081" fill-opacity="0.35"/>
<path d="M1231.5 49L1347.98 107.75V225.25L1231.5 284L1115.02 225.25V107.75L1231.5 49Z" fill="#838081" fill-opacity="0.35"/>
<path d="M559 676L675.047 734.75V852.25L559 911L442.953 852.25V734.75L559 676Z" fill="#838081" fill-opacity="0.35"/>
<path d="M1366 245L1482.05 303.75V421.25L1366 480L1249.95 421.25V303.75L1366 245Z" fill="#838081" fill-opacity="0.35"/>
</svg>
